<svg width="27" height="27" viewBox="0 0 27 27" fill="none" xmlns="http://www.w3.org/2000/svg">
    <path fill-rule="evenodd" clip-rule="evenodd"
          d="M2.45267 0.911102C1.96332 0.548011 1.26888 0.588355 0.825101 1.03213C0.336946 1.52029 0.336946 2.31174 0.825101 2.7999L11.6079 13.5827L0.825101 24.3655L0.704071 24.5057C0.34098 24.995 0.381324 25.6895 0.825101 26.1332L0.965298 26.2543C1.45465 26.6174 2.14909 26.577 2.59287 26.1332L13.3757 15.351L24.1584 26.1332L24.2986 26.2543C24.788 26.6174 25.4824 26.577 25.9262 26.1332C26.4144 25.6451 26.4144 24.8536 25.9262 24.3655L15.1434 13.5827L25.9262 2.7999L26.0472 2.6597C26.4103 2.17035 26.37 1.47591 25.9262 1.03213L25.786 0.911102C25.2967 0.548011 24.6022 0.588355 24.1584 1.03213L13.3757 11.8144L2.59287 1.03213L2.45267 0.911102Z"
          fill="#D9D9D9"/>
</svg>
